<svg width="142" height="31" viewBox="0 0 142 31" fill="none" xmlns="http://www.w3.org/2000/svg">
<path d="M17.4844 18.9219C15.0156 21.4844 12.0365 22.7656 8.54688 22.7656C6.04688 22.7656 3.99479 21.9844 2.39062 20.4219C0.796875 18.849 0 16.8333 0 14.375C0 11.9271 0.578125 9.59896 1.73438 7.39062C2.89062 5.18229 4.40104 3.41667 6.26562 2.09375C8.14062 0.770833 9.97917 0.109375 11.7812 0.109375C13.2917 0.109375 14.5208 0.5625 15.4688 1.46875C16.4271 2.375 16.9062 3.55208 16.9062 5C16.9062 6.88542 16.3281 8.52083 15.1719 9.90625C14.026 11.2812 12.6823 11.9688 11.1406 11.9688C10.3281 11.9688 9.66146 11.7604 9.14062 11.3438C8.61979 10.9271 8.35938 10.3906 8.35938 9.73438C8.35938 9.17188 8.58333 8.65104 9.03125 8.17188C9.36458 8.78646 9.82292 9.09375 10.4062 9.09375C11.2396 9.09375 12.0104 8.57292 12.7188 7.53125C13.4375 6.48958 13.7969 5.34896 13.7969 4.10938C13.7969 3.24479 13.5938 2.55729 13.1875 2.04688C12.7917 1.53646 12.2604 1.28125 11.5938 1.28125C10.625 1.28125 9.58854 1.88542 8.48438 3.09375C7.39062 4.30208 6.47396 5.85417 5.73438 7.75C5.00521 9.64583 4.64062 11.4479 4.64062 13.1562C4.64062 15.3333 5.25521 17.1198 6.48438 18.5156C7.72396 19.9115 9.29688 20.6094 11.2031 20.6094C12.4115 20.6094 13.5 20.3281 14.4688 19.7656C15.4375 19.2031 16.4427 18.3229 17.4844 17.125V18.9219ZM34.1719 18.9219C32.5052 20.5052 31.3125 21.5365 30.5938 22.0156C29.875 22.4948 29.1875 22.7344 28.5312 22.7344C26.8854 22.7344 26.1094 21.2812 26.2031 18.375C25.1615 19.8646 24.1979 20.9635 23.3125 21.6719C22.4375 22.3802 21.5312 22.7344 20.5938 22.7344C19.6771 22.7344 18.8958 22.3073 18.25 21.4531C17.6146 20.5885 17.2969 19.5312 17.2969 18.2812C17.2969 16.7188 17.724 15.2292 18.5781 13.8125C19.4427 12.3958 20.5469 11.25 21.8906 10.375C23.2344 9.5 24.4219 9.0625 25.4531 9.0625C26.7552 9.0625 27.6667 9.66146 28.1875 10.8594L31.375 9.09375H32.25L30.875 13.6719C30.1667 15.974 29.8125 17.5521 29.8125 18.4062C29.8125 19.3021 30.1302 19.75 30.7656 19.75C31.1719 19.75 31.6198 19.5365 32.1094 19.1094C32.599 18.6719 33.2865 18.0104 34.1719 17.125V18.9219ZM22.7344 19.7812C23.776 19.7812 24.7552 18.8958 25.6719 17.125C26.599 15.3438 27.0625 13.7031 27.0625 12.2031C27.0625 11.6198 26.9323 11.1667 26.6719 10.8438C26.4115 10.5104 26.0625 10.3438 25.625 10.3438C24.5833 10.3438 23.5938 11.2292 22.6562 13C21.7292 14.7708 21.2656 16.401 21.2656 17.8906C21.2656 18.4531 21.401 18.9115 21.6719 19.2656C21.9531 19.6094 22.3073 19.7812 22.7344 19.7812ZM57.1875 18.9219C55.8854 20.1927 54.7708 21.1458 53.8438 21.7812C52.9167 22.4167 52.0156 22.7344 51.1406 22.7344C50.4531 22.7344 49.9062 22.5 49.5 22.0312C49.1042 21.5521 48.9062 20.9115 48.9062 20.1094C48.9062 18.9844 49.1875 17.5573 49.75 15.8281C50.3125 14.099 50.5938 13.0469 50.5938 12.6719C50.5938 12.3385 50.4219 12.1719 50.0781 12.1719C49.974 12.1719 49.849 12.2083 49.7031 12.2812C49.5469 12.3542 49.3698 12.4583 49.1719 12.5938C48.974 12.7396 48.7604 12.9167 48.5312 13.125C48.3021 13.3333 48.0625 13.5729 47.8125 13.8438C47.5417 14.1146 47.2708 14.4115 47 14.7344C46.5417 15.276 46.2708 15.7292 46.1875 16.0938L45.6719 18.3281L44.7344 22.0156L40.7656 22.7344L42.2812 16.2969C42.3958 15.8281 42.5312 15.1406 42.6875 14.2344C42.8438 13.3281 42.9219 12.7865 42.9219 12.6094C42.9219 12.2552 42.8021 12.0781 42.5625 12.0781C42.4896 12.0781 42.3854 12.1146 42.25 12.1875C42.0938 12.2604 41.9167 12.3698 41.7188 12.5156C41.4896 12.6823 41.2448 12.8802 40.9844 13.1094C40.7031 13.3594 40.401 13.6458 40.0781 13.9688C39.7344 14.3125 39.3802 14.6927 39.0156 15.1094C38.5156 15.6719 38.2031 16.3281 38.0781 17.0781C37.9115 17.974 37.7969 18.776 37.7344 19.4844C37.6615 20.1927 37.6198 20.9844 37.6094 21.8594L34.1406 22.6875C34.0573 21.4896 34.0156 20.4896 34.0156 19.6875C34.0156 17.7812 34.2135 16.125 34.6094 14.7188C35.0052 13.3021 35.651 11.651 36.5469 9.76562L40.3281 9.03125C39.651 10.7292 39.125 12.3698 38.75 13.9531C41.5521 10.6927 43.6979 9.0625 45.1875 9.0625C45.7292 9.0625 46.1667 9.28646 46.5 9.73438C46.8438 10.1719 47.0156 10.75 47.0156 11.4688C47.0156 11.8021 46.9635 12.4167 46.8594 13.3125C48.6198 11.5521 49.8802 10.4062 50.6406 9.875C51.4115 9.33333 52.1198 9.0625 52.7656 9.0625C53.3385 9.0625 53.8073 9.29167 54.1719 9.75C54.5365 10.2083 54.7188 10.7917 54.7188 11.5C54.7188 12.6146 54.4115 14.0469 53.7969 15.7969C53.1823 17.5469 52.875 18.7031 52.875 19.2656C52.875 19.849 53.0885 20.1406 53.5156 20.1406C53.7865 20.1406 54.1615 19.9635 54.6406 19.6094C55.1302 19.2448 55.9792 18.4167 57.1875 17.125V18.9219ZM62.0156 9.76562C62.7344 9.57812 63.4583 9.42708 64.1875 9.3125C64.9167 9.1875 65.3542 9.125 65.5 9.125C65.6042 9.125 65.6562 9.16667 65.6562 9.25C65.6562 9.40625 65.6146 9.56771 65.5312 9.73438C65.3646 10.2135 65.2812 10.6719 65.2812 11.1094C65.2812 11.651 65.5938 12.3906 66.2188 13.3281C66.8438 14.2656 67.1562 15.1354 67.1562 15.9375C67.1562 17.5312 66.3906 19.0677 64.8594 20.5469C63.3385 22.026 61.7604 22.7656 60.125 22.7656C59.4167 22.7656 58.7708 22.5781 58.1875 22.2031C57.6042 21.8281 57.3125 21.4271 57.3125 21C57.3125 20.75 57.599 20.276 58.1719 19.5781C58.7552 18.8802 59.1719 18.5312 59.4219 18.5312C59.7552 18.5312 60.0521 18.9583 60.3125 19.8125C60.5729 20.6667 61.0208 21.0938 61.6562 21.0938C62.2917 21.0938 62.8854 20.8021 63.4375 20.2188C64 19.625 64.2812 18.9896 64.2812 18.3125C64.2812 17.6562 63.9271 16.7812 63.2188 15.6875C62.5104 14.5938 62.0417 13.6771 61.8125 12.9375C60.6042 14.8854 59.0729 16.8802 57.2188 18.9219H56.8594V17.5156C59.4115 14.7969 61.1302 12.2135 62.0156 9.76562ZM82.1406 13.5469C83.3698 13.4948 84.3854 13.375 85.1875 13.1875L85.4375 13.125C85.7604 13.125 85.9219 13.2344 85.9219 13.4531C85.9219 13.6094 85.8073 14.0625 85.5781 14.8125C85.349 15.5521 85.1667 15.9635 85.0312 16.0469C84.9062 16.1302 84.5781 16.1979 84.0469 16.25C83.5156 16.3021 82.6354 16.3281 81.4062 16.3281L80.5781 19.3281C80.349 20.1823 80.1406 20.8438 79.9531 21.3125C79.7656 21.7812 79.5521 22.0833 79.3125 22.2188C79.0729 22.3542 78.599 22.474 77.8906 22.5781C77.1927 22.6823 76.4375 22.7344 75.625 22.7344C75.1354 22.7344 74.8906 22.6042 74.8906 22.3438C74.8906 22.125 74.9635 21.8177 75.1094 21.4219L77 16.2969L71.4844 16.1094C70.9844 16.0885 70.6719 16.0573 70.5469 16.0156C70.4323 15.974 70.375 15.8646 70.375 15.6875C70.375 15.0208 70.4844 14.4635 70.7031 14.0156C71.2031 12.9635 71.9531 11.7135 72.9531 10.2656C74.4115 8.17188 76.1094 6.14583 78.0469 4.1875C79.9948 2.22917 81.4062 1.01562 82.2812 0.546875C82.8229 0.255208 83.5677 0.109375 84.5156 0.109375C85.1094 0.109375 85.4062 0.265625 85.4062 0.578125C85.4062 0.713542 85.1615 1.8125 84.6719 3.875L84.2031 5.89062C83.9427 6.98438 83.3958 9.03125 82.5625 12.0312L82.1406 13.5469ZM80.9688 3.14062C79.9583 3.83854 78.5469 5.25 76.7344 7.375C74.9323 9.48958 73.3854 11.6719 72.0938 13.9219C74.5208 13.9531 76.401 13.9323 77.7344 13.8594C78.6198 11.2656 79.6979 7.69271 80.9688 3.14062Z" fill="white"/>
<path d="M111.219 18.9219C110.177 20.2135 108.266 21.2917 105.484 22.1562C104.495 24.9896 103.281 27.0781 101.844 28.4219C100.406 29.7656 98.9115 30.4375 97.3594 30.4375C96.5677 30.4375 95.9323 30.2188 95.4531 29.7812C94.974 29.3542 94.7344 28.7865 94.7344 28.0781C94.7344 25.8385 96.9427 23.9479 101.359 22.4062L101.719 20.9375C102.75 16.7396 103.391 14.2344 103.641 13.4219L104.531 10.4375C104.417 10.6562 104.172 11.1823 103.797 12.0156C101.995 16.0573 100.391 18.8229 98.9844 20.3125C97.5781 21.7917 96.1927 22.5312 94.8281 22.5312C93.7865 22.5312 92.9375 22.125 92.2812 21.3125C91.6354 20.5 91.3125 19.4375 91.3125 18.125C91.3125 16.4792 91.8958 13.9688 93.0625 10.5938C94.2396 7.21875 94.8281 4.96875 94.8281 3.84375C94.8281 3.15625 94.6458 2.58854 94.2812 2.14062C93.9271 1.68229 93.474 1.45312 92.9219 1.45312C92.0677 1.45312 91.2656 1.92708 90.5156 2.875C89.7656 3.82292 89.3906 4.83854 89.3906 5.92188C89.3906 6.91146 89.7448 7.71354 90.4531 8.32812C90.7031 8.55729 90.8281 8.73958 90.8281 8.875C90.8281 9.1875 90.6198 9.61979 90.2031 10.1719C89.7969 10.7135 89.3906 10.9844 88.9844 10.9844C88.5469 10.9844 88.125 10.6771 87.7188 10.0625C87.3229 9.44792 87.125 8.79688 87.125 8.10938C87.125 6.26562 87.8021 4.45312 89.1562 2.67188C90.5104 0.890625 92.125 0 94 0C95.3333 0 96.4219 0.526042 97.2656 1.57812C98.1198 2.61979 98.5469 3.97396 98.5469 5.64062C98.5469 7.64062 97.9062 10.4115 96.625 13.9531C95.75 16.401 95.3125 18.1302 95.3125 19.1406C95.3125 20.0781 95.6562 20.5469 96.3438 20.5469C97.6146 20.5469 99.2396 18.6406 101.219 14.8281C103.198 11.0052 104.984 6.40625 106.578 1.03125C106.651 0.760417 106.776 0.583333 106.953 0.5C107.141 0.416667 107.766 0.3125 108.828 0.1875C109.901 0.0625 110.474 0 110.547 0C110.818 0 110.938 0.078125 110.906 0.234375L110.062 3.625L107.641 14.2188C107.307 15.6771 106.75 17.8281 105.969 20.6719C108.115 19.9948 109.865 18.8125 111.219 17.125V18.9219ZM100.984 23.7812C99.4219 24.3125 98.1875 24.9635 97.2812 25.7344C96.375 26.5156 95.9219 27.25 95.9219 27.9375C95.9219 28.3229 96.0573 28.6406 96.3281 28.8906C96.599 29.151 96.9323 29.2812 97.3281 29.2812C98.1094 29.2812 98.7812 28.8333 99.3438 27.9375C99.9167 27.0417 100.464 25.6562 100.984 23.7812ZM125.234 18.9219C124.703 19.3906 124.188 19.724 123.688 19.9219C123.188 20.1094 122.792 20.2031 122.5 20.2031C121.75 20.2031 121.005 19.9115 120.266 19.3281C118.766 21.599 117.047 22.7344 115.109 22.7344C113.901 22.7344 112.922 22.2812 112.172 21.375C111.422 20.4688 111.047 19.2656 111.047 17.7656C111.047 15.3906 111.891 13.3542 113.578 11.6562C115.266 9.94792 117.281 9.09375 119.625 9.09375C120.51 9.09375 121.156 9.19271 121.562 9.39062C121.979 9.57812 122.234 9.80208 122.328 10.0625C122.422 10.3229 122.469 10.651 122.469 11.0469C122.469 12.9948 121.938 15.3854 120.875 18.2188C121.406 18.7083 121.964 18.9531 122.547 18.9531C123.245 18.9531 124.141 18.3438 125.234 17.125V18.9219ZM120.078 10.1875C119.922 10.125 119.698 10.0938 119.406 10.0938C118.052 10.0938 116.99 10.8021 116.219 12.2188C115.458 13.6354 115.078 15.2917 115.078 17.1875C115.078 18.2396 115.245 19.0573 115.578 19.6406C115.911 20.224 116.375 20.5156 116.969 20.5156C117.708 20.5156 118.51 19.8333 119.375 18.4688C118.396 17.2396 117.906 15.9167 117.906 14.5C117.906 12.8333 118.63 11.3958 120.078 10.1875ZM141.922 18.9219C140.547 20.224 139.396 21.1875 138.469 21.8125C137.542 22.4271 136.708 22.7344 135.969 22.7344C135.146 22.7344 134.51 22.4062 134.062 21.75C133.625 21.0938 133.406 20.2031 133.406 19.0781C132.26 20.3385 131.234 21.2708 130.328 21.875C129.422 22.4688 128.536 22.7656 127.672 22.7656C126.88 22.7656 126.245 22.4375 125.766 21.7812C125.286 21.125 125.047 20.2344 125.047 19.1094C125.047 16.9427 125.776 13.8906 127.234 9.95312L131.391 9.125C129.682 14.1146 128.828 17.3177 128.828 18.7344C128.828 19.7344 129.203 20.2344 129.953 20.2344C130.495 20.2344 131.167 19.7969 131.969 18.9219C132.771 18.0365 133.271 17.2656 133.469 16.6094L135.516 9.95312L139.766 9.09375C138.786 12.2292 138.115 14.4323 137.75 15.7031C137.385 16.974 137.203 17.8646 137.203 18.375C137.203 19.3542 137.536 19.8438 138.203 19.8438C138.745 19.8438 139.547 19.349 140.609 18.3594L141.922 17.125V18.9219Z" fill="#F05D5E"/>
</svg>
